<svg width="25" height="24" viewBox="0 0 25 24" fill="none" xmlns="http://www.w3.org/2000/svg">
<g clip-path="url(#clip0_434_2147)">
<path d="M16.7604 24.001C16.1482 24.001 15.3319 24.001 14.7196 23.7939C12.0666 22.9656 9.4135 21.309 6.76044 18.8241C2.88289 14.6826 1.6584 10.7482 1.25024 8.05625C1.04616 5.57136 2.06657 2.87939 4.10738 1.22279L4.31146 1.01572C5.12779 0.394494 6.55636 0.601568 7.37269 1.22279L9.4135 3.29354C9.82167 3.91476 10.0257 4.32891 10.0257 4.95013C10.0257 5.57136 9.82167 6.19258 9.4135 6.60673L8.3931 7.84917C7.98493 8.4704 7.78085 9.2987 8.18901 9.91992C9.20942 12.1977 11.2502 16.1322 14.7196 16.9605C15.3319 17.1675 15.9441 16.9605 16.5564 16.5463L18.189 15.3039C18.5972 15.0968 19.0053 14.6826 19.6176 14.6826C20.2298 14.6826 20.8421 14.8897 21.2502 15.3039L23.2911 17.3746C24.1074 18.2029 24.1074 19.4453 23.4951 20.2736L23.2911 20.4807C21.6584 22.7585 19.2094 24.001 16.7604 24.001ZM5.74004 1.63694C5.53595 1.63694 5.12779 1.63694 4.92371 1.84402L4.71963 2.05109C3.08697 3.50061 2.06657 5.77843 2.27065 8.05625C2.47473 10.5411 3.69922 14.2685 7.37269 17.9958C9.82167 20.4807 12.2706 21.9302 14.7196 22.7585C17.5768 23.5868 20.4339 22.5515 22.2706 20.0666L22.4747 19.8595C22.8829 19.4453 22.8829 18.617 22.4747 18.2029L20.4339 16.1322C20.0257 15.718 19.2094 15.718 18.8013 16.1322L17.1686 17.3746C16.3523 17.9958 15.3319 18.2029 14.5155 17.9958C10.638 17.1675 8.18901 12.819 7.16861 10.5411C6.76044 9.2987 6.96452 8.05625 7.57677 7.22795L8.59718 5.77843C8.80126 5.57136 9.00534 5.36428 9.00534 4.95013C9.00534 4.53598 8.80126 4.32891 8.59718 4.12183L6.55636 2.05109C6.35228 1.84402 5.94412 1.63694 5.74004 1.63694Z" fill="white"/>
</g>
<defs>
<clipPath id="clip0_434_2147">
<rect width="25" height="24" fill="white"/>
</clipPath>
</defs>
</svg>
