<svg width="19" height="27" viewBox="0 0 19 27" fill="none" xmlns="http://www.w3.org/2000/svg">
<g clip-path="url(#clip0_434_2141)">
<path d="M9.5 27C7.68085 27 0 14.4135 0 9.54135C0 4.26316 4.24468 0 9.5 0C14.7553 0 19 4.26316 19 9.54135C19 14.4135 11.3191 27 9.5 27ZM9.5 1.01504C4.85106 1.01504 1.01064 4.87218 1.01064 9.54135C1.01064 14.2105 8.08511 24.9699 9.5 25.985C10.7128 24.9699 17.9894 14.2105 17.9894 9.54135C17.9894 4.87218 14.1489 1.01504 9.5 1.01504Z" fill="white"/>
<path d="M9.49942 15.429C6.26537 15.429 3.83984 12.7899 3.83984 9.74476C3.83984 6.49664 6.4675 4.06055 9.49942 4.06055C12.5313 4.06055 15.159 6.69965 15.159 9.74476C15.159 12.7899 12.7335 15.429 9.49942 15.429ZM9.49942 4.87258C6.87176 4.87258 4.85048 7.10566 4.85048 9.54175C4.85048 12.1808 7.07389 14.2109 9.49942 14.2109C12.1271 14.4139 14.1484 12.3839 14.1484 9.74476C14.1484 7.10566 12.1271 4.87258 9.49942 4.87258Z" fill="white"/>
</g>
<defs>
<clipPath id="clip0_434_2141">
<rect width="19" height="27" fill="white"/>
</clipPath>
</defs>
</svg>
